<?xml version="1.0" encoding="UTF-8" standalone="no"?>
<!-- Generator: Adobe Illustrator 16.0.4, SVG Export Plug-In . SVG Version: 6.00 Build 0)  -->

<svg
   xmlns:dc="http://purl.org/dc/elements/1.1/"
   xmlns:cc="http://creativecommons.org/ns#"
   xmlns:rdf="http://www.w3.org/1999/02/22-rdf-syntax-ns#"
   xmlns:svg="http://www.w3.org/2000/svg"
   xmlns="http://www.w3.org/2000/svg"
   xmlns:sodipodi="http://sodipodi.sourceforge.net/DTD/sodipodi-0.dtd"
   xmlns:inkscape="http://www.inkscape.org/namespaces/inkscape"
   version="1.1"
   id="Capa_1"
   x="0px"
   y="0px"
   width="20px"
   height="20px"
   viewBox="0 0 20 20"
   style="enable-background:new 0 0 20 20;"
   xml:space="preserve"
   inkscape:version="0.48.4 r"
   sodipodi:docname="walkie3.svg"><metadata
     id="metadata3175"><rdf:RDF><cc:Work
         rdf:about=""><dc:format>image/svg+xml</dc:format><dc:type
           rdf:resource="http://purl.org/dc/dcmitype/StillImage" /><dc:title></dc:title></cc:Work></rdf:RDF></metadata><defs
     id="defs3173" /><sodipodi:namedview
     pagecolor="#ffffff"
     bordercolor="#666666"
     borderopacity="1"
     objecttolerance="10"
     gridtolerance="10"
     guidetolerance="10"
     inkscape:pageopacity="0"
     inkscape:pageshadow="2"
     inkscape:window-width="1920"
     inkscape:window-height="1003"
     id="namedview3171"
     showgrid="false"
     inkscape:zoom="94.4"
     inkscape:cx="13.053121"
     inkscape:cy="19.809633"
     inkscape:window-x="-9"
     inkscape:window-y="-9"
     inkscape:window-maximized="1"
     inkscape:current-layer="Capa_1" /><path
     style="fill:none"
     d="M7.674,10.596h4.652v0.395H7.674V10.596z M20,4v12c0,2.2-1.8,4-4,4H4c-2.2,0-4-1.8-4-4V4  c0-2.2,1.8-4,4-4h12C18.2,0,20,1.8,20,4z M12.865,7.904c0-0.34-0.221-0.623-0.523-0.734V3.529c0.119-0.109,0.199-0.262,0.199-0.438  c0-0.326-0.266-0.592-0.594-0.592s-0.594,0.266-0.594,0.592c0,0.176,0.08,0.328,0.199,0.438v3.588h-1.158V5.809  c0-0.217-0.178-0.393-0.395-0.393c-0.219,0-0.395,0.176-0.395,0.393v1.309H8.723V6.395c0-0.326-0.266-0.59-0.592-0.59  s-0.592,0.264-0.592,0.59V7.23C7.303,7.367,7.135,7.613,7.135,7.904v3.184c0,0.434,0.121,0.982,0.27,1.221s0.27,0.787,0.27,1.221  v3.182c0,0.434,0.355,0.789,0.789,0.789h3.074c0.434,0,0.789-0.355,0.789-0.789v-3.182c0-0.434,0.121-0.982,0.27-1.221  s0.27-0.787,0.27-1.221V7.904z M7.674,8.504h4.652V8.109H7.674V8.504z M7.674,10.162h4.652V9.768H7.674V10.162z M7.674,9.332h4.652  V8.938H7.674V9.332z"
     id="path3139" /><g
     id="g3141" /><g
     id="g3143" /><g
     id="g3145" /><g
     id="g3147" /><g
     id="g3149" /><g
     id="g3151" /><g
     id="g3153" /><g
     id="g3155" /><g
     id="g3157" /><g
     id="g3159" /><g
     id="g3161" /><g
     id="g3163" /><g
     id="g3165" /><g
     id="g3167" /><g
     id="g3169" /><path
     style="fill:#ff0000"
     d="m 7.6808213,10.794125 0,-0.191009 2.3220667,0 2.322067,0 0,0.191009 0,0.191008 -2.322067,0 -2.3220667,0 0,-0.191008 z"
     id="path3179"
     inkscape:connector-curvature="0" /><path
     style="fill:#ff0000"
     d="m 7.6808213,9.9664201 0,-0.1947539 2.3220667,0 2.322067,0 0,0.1947539 0,0.1947539 -2.322067,0 -2.3220667,0 0,-0.1947539 z"
     id="path3181"
     inkscape:connector-curvature="0" /><path
     style="fill:#ff0000"
     d="m 7.6808213,9.1349704 0,-0.194754 2.3220667,0 2.322067,0 0,0.194754 0,0.194754 -2.322067,0 -2.3220667,0 0,-0.194754 z"
     id="path3183"
     inkscape:connector-curvature="0" /><path
     style="fill:#ff0000"
     d="m 7.6808213,8.307266 0,-0.1910087 2.3220667,0 2.322067,0 0,0.1910087 0,0.1910087 -2.322067,0 -2.3220667,0 0,-0.1910087 z"
     id="path3185"
     inkscape:connector-curvature="0" /></svg>